<?xml version="1.0" encoding="UTF-8"?>
<svg version="1.1" xmlns="http://www.w3.org/2000/svg" width="311" height="311">
<path d="M0 0 C2.92043547 0.43628457 5.64481672 0.98190873 8.5 1.6875 C9.28503906 1.86216797 10.07007813 2.03683594 10.87890625 2.21679688 C11.63042969 2.39662109 12.38195312 2.57644531 13.15625 2.76171875 C13.84525391 2.92631592 14.53425781 3.09091309 15.24414062 3.26049805 C17 4 17 4 19 7 C19.2068634 10.11816406 19.2068634 10.11816406 19.14770508 14.015625 C19.13996567 14.72681488 19.13222626 15.43800476 19.12425232 16.17074585 C19.10658977 17.71766448 19.08453502 19.26453771 19.0586338 20.81134033 C19.01907621 23.27837869 18.99478553 25.74513045 18.97502136 28.21240234 C18.9171785 35.22885218 18.84130347 42.24488634 18.73266602 49.26074219 C17.84569807 74.13438124 17.84569807 74.13438124 22.85791016 98.28100586 C25.63861209 107.33582258 25.67828911 119.11162801 21.4140625 127.68359375 C15.83025442 136.83055008 9.02621372 144.23524133 1.5 151.8125 C0.7052124 152.61292725 -0.0895752 153.41335449 -0.90844727 154.23803711 C-14.83955 168 -14.83955 168 -19 168 C-19 168.66 -19 169.32 -19 170 C-21.36262234 171.78608305 -23.71748983 173.4380375 -26.1875 175.0625 C-26.86103516 175.52205078 -27.53457031 175.98160156 -28.22851562 176.45507812 C-34.89989215 180.8874756 -34.89989215 180.8874756 -39 181 C-41.140625 180.21484375 -41.140625 180.21484375 -43.25 178.9375 C-44.01699219 178.47601563 -44.78398437 178.01453125 -45.57421875 177.5390625 C-46.37472656 177.03117188 -47.17523438 176.52328125 -48 176 C-48.85207031 175.47148437 -49.70414062 174.94296875 -50.58203125 174.3984375 C-55.23128362 171.42584464 -55.23128362 171.42584464 -57 170 C-57 169.34 -57 168.68 -57 168 C-57.66644531 167.814375 -58.33289063 167.62875 -59.01953125 167.4375 C-63.29822692 165.37385648 -66.29458486 162.28230274 -69.6875 159 C-70.75315186 157.98123779 -70.75315186 157.98123779 -71.84033203 156.94189453 C-73.257186 155.58366012 -74.67068101 154.22191192 -76.08056641 152.85644531 C-77.6827566 151.30683272 -79.29634771 149.77136044 -80.91796875 148.2421875 C-103.20332364 126.7717184 -116.87498418 97.77979912 -124 68 C-124.20367187 67.18917969 -124.40734375 66.37835938 -124.6171875 65.54296875 C-127.84865112 51.34938623 -131.71253501 29.65755498 -126 16 C-123.3125 14.36328125 -123.3125 14.36328125 -120 13.3125 C-118.8346875 12.92449219 -117.669375 12.53648438 -116.46875 12.13671875 C-115.3240625 11.76160156 -114.179375 11.38648437 -113 11 C-110.3922076 9.89589435 -107.80244658 8.76068665 -105.21875 7.6015625 C-102.50184175 6.86493597 -100.68796622 7.27122043 -98 8 C-97.91910458 10.77141717 -97.85955938 13.54047819 -97.8125 16.3125 C-97.78736328 17.09818359 -97.76222656 17.88386719 -97.73632812 18.69335938 C-97.72666016 19.45068359 -97.71699219 20.20800781 -97.70703125 20.98828125 C-97.6913208 21.68477783 -97.67561035 22.38127441 -97.65942383 23.09887695 C-98.10431377 25.58228769 -99.08013099 26.41853671 -101 28 C-103.67643887 29.58913558 -104.8180056 30 -108 30 C-105.10776023 67.90356328 -95.35179246 102.35496179 -69.01171875 130.796875 C-67 133 -67 133 -64.625 136.0625 C-59.81298794 141.44737064 -54.0033036 145.9977976 -48 150 C-48 150.66 -48 151.32 -48 152 C-47.2575 152.268125 -46.515 152.53625 -45.75 152.8125 C-43 154 -43 154 -41 155.75 C-40.34 156.1625 -39.68 156.575 -39 157 C-35.37672098 156.09418025 -32.93436185 154.22606761 -30 152 C-29.34 152 -28.68 152 -28 152 C-28 151.34 -28 150.68 -28 150 C-26.59321977 148.75185669 -25.12120296 147.5769161 -23.625 146.4375 C-14.15918765 139.73849265 -14.15918765 139.73849265 -7 131 C-6.34 131 -5.68 131 -5 131 C-4.773125 130.484375 -4.54625 129.96875 -4.3125 129.4375 C-3.16284152 127.30241997 -1.93750007 125.50460924 -0.5 123.5625 C3.28328314 118.30608006 4.33121293 114.54476757 4 108 C3.4493673 106.0087821 2.8930271 104.01831842 2.2722168 102.04785156 C-2.62761037 86.18367086 -1.92927928 69.44603446 -2 53 C-2.52001587 53.78479736 -2.52001587 53.78479736 -3.05053711 54.58544922 C-18.86380637 78.34848734 -18.86380637 78.34848734 -24 82 C-28.53560835 82 -31.08344471 79.66510175 -34.375 76.75 C-35.26960938 75.98171875 -36.16421875 75.2134375 -37.0859375 74.421875 C-39 72 -39 72 -38.9140625 69.390625 C-38 67 -38 67 -36 64 C-35.34 64 -34.68 64 -34 64 C-33.77828125 63.48824219 -33.5565625 62.97648437 -33.328125 62.44921875 C-31.45474569 58.9944869 -29.10432713 55.95265482 -26.75 52.8125 C-20.40733162 44.33511082 -14.66257814 36.03354842 -10.375 26.3125 C-9.98820068 25.44834473 -9.60140137 24.58418945 -9.20288086 23.69384766 C-6.45860474 17.41673039 -4.37657183 11.21780703 -2.75390625 4.5546875 C-2 2 -2 2 0 0 Z " fill="#FCFCFC" transform="translate(194,97)"/>
<path d="M0 0 C1.72476563 0.00386719 1.72476563 0.00386719 3.484375 0.0078125 C4.62390625 0.00523438 5.7634375 0.00265625 6.9375 0 C9.83481876 0.11671663 12.42046464 0.46636005 15.234375 1.1328125 C15.99380926 26.5035422 2.00489238 51.09906135 -14.765625 69.1328125 C-12.08216505 71.95718473 -9.38860937 74.17791239 -6.140625 76.3203125 C2.5986134 82.34781663 10.80453048 89.63751513 17.234375 98.1328125 C17.234375 98.7928125 17.234375 99.4528125 17.234375 100.1328125 C17.894375 100.1328125 18.554375 100.1328125 19.234375 100.1328125 C23.55349352 105.54472005 26.16634092 112.03051062 28.609375 118.4453125 C29.00334473 119.4672168 29.00334473 119.4672168 29.40527344 120.50976562 C32.02293162 127.65649951 32.02293162 127.65649951 31.234375 131.1328125 C29.39378124 133.66372538 27.2371387 135.78179105 24.984375 137.9453125 C24.10458984 138.8415332 24.10458984 138.8415332 23.20703125 139.75585938 C18.75504464 144.1328125 18.75504464 144.1328125 14.234375 144.1328125 C13.99654297 142.82570312 13.99654297 142.82570312 13.75390625 141.4921875 C11.1293893 128.09410096 6.8485724 117.77204727 -1.765625 107.1328125 C-2.19109619 106.5847998 -2.61656738 106.03678711 -3.05493164 105.47216797 C-6.91347827 100.68638392 -11.25852845 97.3186264 -16.328125 93.8828125 C-17.06998047 93.3671875 -17.81183594 92.8515625 -18.57617188 92.3203125 C-20.62623323 90.90370732 -22.69064664 89.5125744 -24.765625 88.1328125 C-25.70792969 87.50375 -26.65023437 86.8746875 -27.62109375 86.2265625 C-29.8017475 84.81139928 -29.8017475 84.81139928 -32.515625 85.8828125 C-34.66832793 86.94394172 -34.66832793 86.94394172 -35.765625 88.1328125 C-35.92534477 90.50619889 -36.0248683 92.85399522 -36.08203125 95.23046875 C-36.10281235 95.93932724 -36.12359344 96.64818573 -36.14500427 97.37852478 C-36.21057098 99.65068555 -36.2694173 101.92296514 -36.328125 104.1953125 C-36.37130349 105.73243433 -36.41491755 107.269544 -36.45898438 108.80664062 C-36.56625949 112.5819084 -36.66750637 116.3572961 -36.765625 120.1328125 C-37.755625 120.1328125 -38.745625 120.1328125 -39.765625 120.1328125 C-44.47216967 114.50878951 -47.73347388 107.51433014 -51.078125 101.0078125 C-51.41545654 100.36392578 -51.75278809 99.72003906 -52.1003418 99.05664062 C-57.21274262 88.83442297 -57.06409454 78.53274818 -57.03125 67.390625 C-57.03259924 65.7739964 -57.03454193 64.15736819 -57.03704834 62.54074097 C-57.03998236 59.1703501 -57.03575435 55.80006589 -57.02636719 52.4296875 C-57.0149184 48.10869017 -57.02157705 43.78793986 -57.03351212 39.46695137 C-57.0407305 36.13670988 -57.03844385 32.80652726 -57.03325653 29.47628403 C-57.03192282 27.88226161 -57.03355802 26.28823385 -57.03821564 24.69421768 C-57.04328657 22.47324619 -57.03556547 20.25267954 -57.02441406 18.03173828 C-57.02282288 16.7687088 -57.02123169 15.50567932 -57.01959229 14.20437622 C-56.765625 11.1328125 -56.765625 11.1328125 -54.765625 8.1328125 C-52.13800903 7.26082895 -49.63950039 6.56009298 -46.953125 5.9453125 C-46.24091797 5.76806641 -45.52871094 5.59082031 -44.79492188 5.40820312 C-41.05132303 4.51126316 -37.60315779 3.71797431 -33.765625 4.1328125 C-31.66918945 5.62988281 -31.66918945 5.62988281 -29.62890625 7.7109375 C-28.88705078 8.45988281 -28.14519531 9.20882812 -27.38085938 9.98046875 C-26.62095703 10.77324219 -25.86105469 11.56601563 -25.078125 12.3828125 C-24.30662109 13.16011719 -23.53511719 13.93742187 -22.74023438 14.73828125 C-16.24046928 21.37996261 -16.24046928 21.37996261 -14.765625 25.1328125 C-15.04052974 29.85094507 -16.57255272 33.04825717 -19.078125 37.0078125 C-19.67238281 37.97460938 -20.26664063 38.94140625 -20.87890625 39.9375 C-21.81283203 41.02417969 -21.81283203 41.02417969 -22.765625 42.1328125 C-24.085625 42.1328125 -25.405625 42.1328125 -26.765625 42.1328125 C-28.87109375 39.98046875 -28.87109375 39.98046875 -30.953125 37.1953125 C-31.64792969 36.27878906 -32.34273437 35.36226562 -33.05859375 34.41796875 C-33.62191406 33.66386719 -34.18523437 32.90976563 -34.765625 32.1328125 C-35.095625 31.8028125 -35.425625 31.4728125 -35.765625 31.1328125 C-35.765625 41.0328125 -35.765625 50.9328125 -35.765625 61.1328125 C-31.43895015 58.96947508 -31.59970949 59.01675613 -29.765625 55.1328125 C-28.20620205 52.99057492 -26.55596395 51.10218535 -24.765625 49.1328125 C-24.105625 49.1328125 -23.445625 49.1328125 -22.765625 49.1328125 C-22.50265625 48.40707031 -22.2396875 47.68132812 -21.96875 46.93359375 C-20.74736522 44.09030516 -19.2858748 41.85208868 -17.515625 39.3203125 C-10.61172818 28.61281349 -7.35156522 16.47584179 -4.52734375 4.16796875 C-3.52379724 0.1692219 -3.52379724 0.1692219 0 0 Z " fill="#FCFCFC" transform="translate(155.765625,92.8671875)"/>
<path d="M0 0 C1.86011719 0.41378906 1.86011719 0.41378906 3.7578125 0.8359375 C6.875 1.625 6.875 1.625 8.875 2.625 C8.875 7.905 8.875 13.185 8.875 18.625 C10.7621875 18.563125 10.7621875 18.563125 12.6875 18.5 C18.25175628 18.48227944 23.43111216 19.52244044 28.875 20.625 C28.875 16.335 28.875 12.045 28.875 7.625 C32.00109721 6.0619514 34.96139592 7.24925994 38.25 7.9375 C38.92289062 8.06833984 39.59578125 8.19917969 40.2890625 8.33398438 C47.07896463 9.7173601 47.07896463 9.7173601 49.875 11.625 C51.00504939 15.01514816 51.00441627 17.61881313 51.0078125 21.19140625 C51.00910156 22.48111328 51.01039063 23.77082031 51.01171875 25.09960938 C51.00962402 25.77016357 51.0075293 26.44071777 51.00537109 27.1315918 C51.00001043 29.1835059 51.00532881 31.23520199 51.01171875 33.28710938 C51.01042969 34.57552734 51.00914062 35.86394531 51.0078125 37.19140625 C51.00668457 38.37677979 51.00555664 39.56215332 51.00439453 40.78344727 C50.875 43.625 50.875 43.625 49.875 45.625 C49.18575439 45.48400879 48.49650879 45.34301758 47.78637695 45.19775391 C13.49230665 38.20317279 -17.3986244 35.48850655 -51.89746094 43.44213867 C-52.64930664 43.61076416 -53.40115234 43.77938965 -54.17578125 43.953125 C-54.82200439 44.1068457 -55.46822754 44.26056641 -56.1340332 44.41894531 C-58.62521686 44.67676984 -60.70308781 44.20758154 -63.125 43.625 C-63.1497345 39.54989562 -63.16787637 35.47482036 -63.17993164 31.3996582 C-63.18495777 30.01358275 -63.19177966 28.62751259 -63.20043945 27.24145508 C-63.21258018 25.24823285 -63.21771021 23.25497181 -63.22265625 21.26171875 C-63.22789307 20.06248779 -63.23312988 18.86325684 -63.23852539 17.62768555 C-63.125 14.625 -63.125 14.625 -62.125 11.625 C-55.82222434 8.89379721 -49.01676584 6.84184479 -42.125 7.625 C-41.125 8.625 -41.125 8.625 -41.02734375 11.34765625 C-41.03894531 12.44980469 -41.05054687 13.55195312 -41.0625 14.6875 C-41.07152344 15.79222656 -41.08054687 16.89695312 -41.08984375 18.03515625 C-41.10144531 18.88980469 -41.11304687 19.74445313 -41.125 20.625 C-40.43535156 20.480625 -39.74570313 20.33625 -39.03515625 20.1875 C-32.9369808 18.98292213 -27.33736555 18.42131588 -21.125 18.625 C-21.125 13.345 -21.125 8.065 -21.125 2.625 C-13.703125 0.37890625 -13.703125 0.37890625 -11.125 -0.375 C-10.50367188 -0.60058594 -9.88234375 -0.82617188 -9.2421875 -1.05859375 C-5.98531764 -1.54532153 -3.19182744 -0.72632399 0 0 Z " fill="#FCFCFC" transform="translate(162.125,50.375)"/>
<path d="M0 0 C6.16957311 0.5907936 11.54555832 2.40210612 17.3125 4.625 C18.67084961 5.10259766 18.67084961 5.10259766 20.05664062 5.58984375 C26.58368044 8.11110149 26.58368044 8.11110149 28.58984375 12.39453125 C29.26300746 18.31196084 29.2725985 24.05576474 29 30 C28.96422852 30.78826172 28.92845703 31.57652344 28.89160156 32.38867188 C27.52375329 58.28793047 21.02015403 83.48009138 8 106 C7.01 105.67 6.02 105.34 5 105 C4.89042969 104.10539062 4.78085938 103.21078125 4.66796875 102.2890625 C3.92048344 96.58872738 3.18912864 91.13660976 1.3125 85.6875 C-0.9762555 78.48259111 0.71430665 72.82439368 2.875 65.75 C6.97854564 51.96208664 8.30174429 37.3262809 9 23 C6.03 22.01 3.06 21.02 0 20 C-0.93339313 16.05159889 -1.13424241 12.36529711 -1.125 8.3125 C-1.12757813 7.17425781 -1.13015625 6.03601563 -1.1328125 4.86328125 C-1 2 -1 2 0 0 Z " fill="#FCFBFB" transform="translate(217,104)"/>
<path d="M0 0 C4.09650855 1.37765145 6.75112402 3.21213616 9.875 6.1875 C10.67679688 6.92355469 11.47859375 7.65960938 12.3046875 8.41796875 C14 11 14 11 13.9375 14.35546875 C12.96329291 18.14269883 11.68183678 21.53885358 10.125 25.125 C7.56091206 31.18155255 5.8710127 37.10274077 4.640625 43.5859375 C4.42921875 44.38257813 4.2178125 45.17921875 4 46 C3.01 46.495 3.01 46.495 2 47 C0.04587135 45.32361552 -1.89499275 43.63527334 -3.8203125 41.92578125 C-5.14796768 40.75278125 -6.49309694 39.59871399 -7.8671875 38.48046875 C-10.77751097 35.95308258 -11.94076212 34.30157467 -12.6875 30.5 C-11.9038795 20.96898782 -6.87950298 6.87950298 0 0 Z " fill="#FBFBFB" transform="translate(138,191)"/>
<path d="M0 0 C0.33 0 0.66 0 1 0 C1 14.19 1 28.38 1 43 C-1 41 -1 41 -1.22705078 37.46826172 C-1.22673363 35.95536669 -1.21540633 34.44244912 -1.1953125 32.9296875 C-1.1924826 32.13345978 -1.18965271 31.33723206 -1.18673706 30.51687622 C-1.1755264 27.96943237 -1.15042062 25.42233789 -1.125 22.875 C-1.11497133 21.14974465 -1.10584528 19.42448381 -1.09765625 17.69921875 C-1.07558422 13.46601086 -1.04104867 9.2330647 -1 5 C-1.66 5 -2.32 5 -3 5 C-1.125 1.125 -1.125 1.125 0 0 Z " fill="#F1F1F1" transform="translate(194,144)"/>
<path d="M0 0 C0.33 0 0.66 0 1 0 C1 6.93 1 13.86 1 21 C1.99 21 2.98 21 4 21 C4 21.66 4 22.32 4 23 C2.35 22.67 0.7 22.34 -1 22 C-1.02903577 18.89585298 -1.0468107 15.79174091 -1.0625 12.6875 C-1.07087891 11.80642578 -1.07925781 10.92535156 -1.08789062 10.01757812 C-1.09111328 9.17001953 -1.09433594 8.32246094 -1.09765625 7.44921875 C-1.10289307 6.66893311 -1.10812988 5.88864746 -1.11352539 5.0847168 C-1 3 -1 3 0 0 Z " fill="#F4F4F4" transform="translate(100,72)"/>
<path d="M0 0 C0.33 0.99 0.66 1.98 1 3 C-0.37499873 4.70451912 -1.77579293 6.38825686 -3.1875 8.0625 C-3.96480469 9.00222656 -4.74210938 9.94195312 -5.54296875 10.91015625 C-8 13 -8 13 -10.65625 12.9375 C-13.48716622 11.80513351 -15.01255299 10.2818836 -17 8 C-16.67 7.34 -16.34 6.68 -16 6 C-15.236875 6.66 -14.47375 7.32 -13.6875 8 C-11.15722061 10.29850538 -11.15722061 10.29850538 -8 10 C-5.8571648 7.77838385 -5.8571648 7.77838385 -3.8125 5 C-2.73935547 3.6078125 -2.73935547 3.6078125 -1.64453125 2.1875 C-1.10183594 1.465625 -0.55914062 0.74375 0 0 Z " fill="#F4F4F5" transform="translate(178,166)"/>
<path d="M0 0 C0.94676925 3.78707698 1.01725137 5.07599224 0.1875 8.6875 C0.01605469 9.47511719 -0.15539062 10.26273438 -0.33203125 11.07421875 C-1 13 -1 13 -3 14 C-4.98 12.35 -6.96 10.7 -9 9 C-8.01 8.67 -7.02 8.34 -6 8 C-6 8.66 -6 9.32 -6 10 C-5.01 10 -4.02 10 -3 10 C-2.01 6.7 -1.02 3.4 0 0 Z " fill="#F3F3F3" transform="translate(143,224)"/>
<path d="M0 0 C1 3 1 3 0.3190918 4.7175293 C-0.05046631 5.33023682 -0.42002441 5.94294434 -0.80078125 6.57421875 C-1.20103516 7.24130859 -1.60128906 7.90839844 -2.01367188 8.59570312 C-2.44228516 9.28599609 -2.87089844 9.97628906 -3.3125 10.6875 C-3.72951172 11.38939453 -4.14652344 12.09128906 -4.57617188 12.81445312 C-5.65395505 14.58325518 -6.82077843 16.29714541 -8 18 C-8.66 18 -9.32 18 -10 18 C-8.47146065 13.72813475 -6.28490519 10.00673137 -3.875 6.1875 C-3.50246094 5.59001953 -3.12992188 4.99253906 -2.74609375 4.37695312 C-1.8342952 2.91573749 -0.91764024 1.45755415 0 0 Z " fill="#F3F3F3" transform="translate(159,133)"/>
<path d="M0 0 C2.33936818 2.12669835 3.80653848 4.06224856 5 7 C5 7.99 5 8.98 5 10 C5.99 10.33 6.98 10.66 8 11 C8.33 13.31 8.66 15.62 9 18 C4.93856672 13.63771981 0 6.17759869 0 0 Z " fill="#F1F1F1" transform="translate(80,194)"/>
<path d="M0 0 C3.465 1.98 3.465 1.98 7 4 C7 4.66 7 5.32 7 6 C9.475 6.99 9.475 6.99 12 8 C12 8.66 12 9.32 12 10 C7.57230983 8.52410328 3.3663135 6.26930159 0 3 C0 2.01 0 1.02 0 0 Z " fill="#F4F2F3" transform="translate(142,267)"/>
<path d="M0 0 C0.33 0.99 0.66 1.98 1 3 C-0.328125 5.19140625 -0.328125 5.19140625 -2.25 7.5625 C-2.87390625 8.34753906 -3.4978125 9.13257813 -4.140625 9.94140625 C-6 12 -6 12 -9 14 C-7.65070536 10.16336928 -5.92248975 7.34827431 -3.375 4.1875 C-2.42753906 3.00220703 -2.42753906 3.00220703 -1.4609375 1.79296875 C-0.97882813 1.20128906 -0.49671875 0.60960937 0 0 Z " fill="#F1F1F1" transform="translate(170,146)"/>
<path d="M0 0 C0.66 0 1.32 0 2 0 C1.1875 2.4375 1.1875 2.4375 0 5 C-0.99 5.33 -1.98 5.66 -3 6 C-3.73323796 8.01508358 -3.73323796 8.01508358 -4 10 C-4.99 10 -5.98 10 -7 10 C-5.32598022 6.04322598 -2.86850715 3.15535787 0 0 Z " fill="#F4F3F4" transform="translate(131,142)"/>
<path d="M0 0 C0.33 0.66 0.66 1.32 1 2 C-0.21705006 3.01471171 -1.44926884 4.0112461 -2.6875 5 C-3.71423828 5.8353125 -3.71423828 5.8353125 -4.76171875 6.6875 C-7.38783056 8.22741897 -9.00603356 8.25168194 -12 8 C-10.59625372 5.19250745 -8.89388208 5.15755283 -6 4 C-3.97681922 2.70211044 -1.97133986 1.37535339 0 0 Z " fill="#F0F0EF" transform="translate(166,248)"/>
<path d="M0 0 C1.53202706 0.25195908 3.05257128 0.57596777 4.5625 0.9375 C5.38878906 1.13214844 6.21507812 1.32679687 7.06640625 1.52734375 C8.02353516 1.76130859 8.02353516 1.76130859 9 2 C6.07175348 2.97608217 4.04386724 3.08226668 1 3 C1 4.65 1 6.3 1 8 C0.01 8.495 0.01 8.495 -1 9 C-1.09765625 2.84765625 -1.09765625 2.84765625 -1 1 C-0.67 0.67 -0.34 0.34 0 0 Z " fill="#ECEBEB" transform="translate(192,57)"/>
<path d="M0 0 C0.66 0 1.32 0 2 0 C2 0.66 2 1.32 2 2 C2.66 2 3.32 2 4 2 C7 7.75 7 7.75 7 10 C2.57320993 8.52440331 2.08567304 6.09942632 0 2 C0 1.34 0 0.68 0 0 Z " fill="#F3F3F5" transform="translate(107,197)"/>
<path d="M0 0 C1.32 0.66 2.64 1.32 4 2 C3.38125 2.20625 2.7625 2.4125 2.125 2.625 C-0.84653645 4.54775888 -1.13024659 6.66594527 -2 10 C-2.33 10 -2.66 10 -3 10 C-2.25 2.25 -2.25 2.25 0 0 Z " fill="#F2F2F2" transform="translate(194,97)"/>
<path d="M0 0 C0.33 0 0.66 0 1 0 C1 2.31 1 4.62 1 7 C2.98 7 4.96 7 7 7 C7 7.33 7 7.66 7 8 C4.6739143 8.38063221 2.33944736 8.71269945 0 9 C-1 8 -1 8 -1.125 4.5 C-1 1 -1 1 0 0 Z " fill="#F3F1F2" transform="translate(120,64)"/>
<path d="M0 0 C0 3 0 3 -1.53125 4.60546875 C-2.1809375 5.12753906 -2.830625 5.64960938 -3.5 6.1875 C-4.1496875 6.71730469 -4.799375 7.24710938 -5.46875 7.79296875 C-5.9740625 8.19128906 -6.479375 8.58960938 -7 9 C-6.8125 6.6875 -6.8125 6.6875 -6 4 C-3.5 2.25 -3.5 2.25 -1 1 C-0.67 0.67 -0.34 0.34 0 0 Z " fill="#EDEDED" transform="translate(183,225)"/>
<path d="M0 0 C0.66 0.33 1.32 0.66 2 1 C1.01 2.485 1.01 2.485 0 4 C0 4.99 0 5.98 0 7 C-0.99 6.34 -1.98 5.68 -3 5 C-2.625 3.0625 -2.625 3.0625 -2 1 C-1.34 0.67 -0.68 0.34 0 0 Z " fill="#F2EFF1" transform="translate(141,159)"/>
</svg>
